<svg width="765" height="224" viewBox="0 0 765 224" fill="none" xmlns="http://www.w3.org/2000/svg">
<path d="M272.071 186C267.006 186 262.589 185.413 258.82 184.237C255.051 183.179 251.812 181.592 249.103 179.477C246.394 177.361 243.921 174.893 241.682 172.072C239.091 168.545 236.559 165.137 234.085 161.846C231.612 158.437 229.08 154.735 226.488 150.738C224.014 146.625 221.246 141.747 218.184 136.105C216.653 133.402 214.709 131.403 212.354 130.11C210.822 129.287 209.232 128.7 207.583 128.347C206.052 127.994 204.756 127.818 203.696 127.818C202.99 127.7 202.46 127.994 202.106 128.7C201.753 129.405 201.576 130.287 201.576 131.344V164.138C201.576 167.782 202.518 170.603 204.403 172.601C206.405 174.598 209.762 176.127 214.474 177.185C216.005 177.419 217.124 177.831 217.831 178.419C218.537 178.889 218.891 179.594 218.891 180.534C218.891 181.357 218.537 181.945 217.831 182.298C217.242 182.65 216.299 182.826 215.004 182.826C212.295 182.826 209.527 182.709 206.7 182.474C203.873 182.356 201.105 182.239 198.396 182.121C195.804 182.003 193.331 181.945 190.975 181.945C188.384 181.945 185.675 182.003 182.848 182.121C180.139 182.239 177.371 182.415 174.544 182.65C171.717 182.885 168.89 183.003 166.064 183.003C165.004 183.003 164.061 182.768 163.237 182.298C162.412 181.945 162 181.416 162 180.711C162 178.948 163.472 177.772 166.417 177.185C170.893 176.245 174.073 174.951 175.958 173.306C177.842 171.66 178.785 168.898 178.785 165.019V87.091C178.785 83.682 178.49 81.096 177.901 79.333C177.43 77.453 176.429 76.042 174.898 75.102C173.366 74.162 171.069 73.456 168.007 72.986C166.358 72.751 165.18 72.281 164.474 71.576C163.767 70.871 163.413 70.165 163.413 69.4601C163.413 68.6373 163.767 68.0496 164.474 67.697C165.298 67.2268 166.358 66.9917 167.654 66.9917C171.187 66.9917 174.014 67.0505 176.134 67.168C178.255 67.2856 180.257 67.4619 182.141 67.697C184.144 67.8145 186.5 67.8733 189.209 67.8733C191.8 67.8733 194.097 67.7557 196.099 67.5207C198.101 67.2856 200.339 67.0505 202.813 66.8154C205.286 66.5804 208.467 66.4628 212.354 66.4628C225.899 66.4628 236.264 68.8136 243.449 73.515C250.634 78.217 254.227 85.387 254.227 95.025C254.227 100.314 253.108 104.84 250.87 108.601C248.632 112.244 245.805 115.242 242.389 117.592C239.091 119.943 235.675 121.765 232.142 123.058C231.67 123.176 231.435 123.469 231.435 123.939C231.553 124.41 231.788 124.821 232.142 125.174C235.675 130.581 239.091 135.752 242.389 140.689C245.805 145.508 249.338 150.092 252.99 154.441C256.759 158.79 260.822 162.962 265.181 166.959C268.832 170.367 272.543 172.424 276.312 173.129C280.199 173.717 284.204 174.011 288.326 174.011C290.093 174.011 290.976 174.893 290.976 176.656C290.976 179.006 290.093 180.887 288.326 182.298C286.559 183.59 284.204 184.531 281.259 185.118C278.432 185.706 275.37 186 272.071 186ZM209.173 122.705C214.002 122.705 218.007 121.647 221.188 119.532C224.486 117.298 226.959 114.36 228.608 110.716C230.375 107.072 231.258 103.017 231.258 98.551C231.258 93.262 230.61 88.795 229.315 85.152C228.019 81.39 225.781 78.511 222.601 76.512C219.539 74.397 215.299 73.339 209.88 73.339C206.818 73.339 204.698 74.455 203.52 76.689C202.46 78.804 201.871 83.153 201.753 89.736C201.635 92.439 201.576 96.024 201.576 100.49C201.576 104.84 201.576 110.07 201.576 116.182C201.576 118.768 202.224 120.531 203.52 121.471C204.933 122.294 206.818 122.705 209.173 122.705ZM327.573 184.766C321.095 184.766 315.383 183.121 310.436 179.829C305.488 176.538 301.602 172.013 298.775 166.253C295.948 160.377 294.534 153.736 294.534 146.331C294.534 139.16 296.183 132.637 299.481 126.76C302.897 120.766 307.432 116.006 313.086 112.479C318.739 108.953 324.923 107.19 331.637 107.19C336.584 107.19 341.001 108.248 344.888 110.364C348.775 112.362 351.837 115.183 354.075 118.826C356.431 122.353 357.609 126.349 357.609 130.815C357.609 135.047 355.783 137.163 352.132 137.163H316.266C314.617 137.163 313.38 137.633 312.556 138.573C311.849 139.396 311.496 140.983 311.496 143.333C311.496 148.27 312.556 152.736 314.676 156.733C316.914 160.729 319.858 163.903 323.51 166.253C327.161 168.604 331.342 169.78 336.054 169.78C339.47 169.78 342.591 169.133 345.418 167.84C348.363 166.43 351.13 164.549 353.722 162.198C354.193 161.846 354.605 161.552 354.959 161.317C355.312 160.964 355.665 160.788 356.019 160.788C357.197 160.788 357.786 161.493 357.786 162.904C357.786 164.549 357.079 166.548 355.665 168.898C354.252 171.601 352.19 174.187 349.482 176.656C346.89 179.124 343.71 181.063 339.941 182.474C336.172 184.002 332.049 184.766 327.573 184.766ZM316.266 130.286H328.81C331.872 130.286 334.169 130.228 335.701 130.11C337.232 129.992 338.704 129.758 340.118 129.405C340.706 129.287 341.119 128.817 341.354 127.994C341.59 127.054 341.708 125.997 341.708 124.821C341.708 121.647 340.471 119.003 337.997 116.887C335.642 114.654 332.697 113.537 329.164 113.537C326.69 113.537 324.275 114.301 321.92 115.829C319.564 117.24 317.621 119.061 316.089 121.295C314.558 123.528 313.851 125.82 313.969 128.171C313.969 129.581 314.734 130.286 316.266 130.286ZM369.659 183.179C369.188 183.179 368.481 182.709 367.539 181.769C366.597 180.711 366.126 179.771 366.126 178.948C366.126 178.36 366.538 177.419 367.362 176.127C368.304 174.716 369.306 173.247 370.366 171.719C371.544 170.074 372.486 168.722 373.193 167.664C376.02 163.198 378.67 159.201 381.143 155.675C383.617 152.031 385.972 148.446 388.211 144.92C390.566 141.276 393.04 137.397 395.631 133.284C398.223 129.17 401.226 124.351 404.642 118.826C404.877 118.474 404.995 118.063 404.995 117.592C404.995 117.122 404.288 116.887 402.875 116.887L390.507 116.711C388.859 116.593 387.386 116.887 386.09 117.592C384.912 118.18 383.794 118.944 382.733 119.884C382.145 120.472 381.379 121.413 380.437 122.705C379.495 123.998 378.493 125.408 377.433 126.937C376.373 128.347 375.431 129.699 374.606 130.992C373.781 132.167 373.134 133.049 372.663 133.636C371.956 134.459 370.896 134.636 369.482 134.165C368.069 133.695 367.48 132.931 367.716 131.873C368.069 130.698 368.54 128.818 369.129 126.231C369.718 123.645 370.248 120.884 370.719 117.945C371.308 115.006 371.603 112.538 371.603 110.54C371.603 109.482 372.015 108.542 372.839 107.719C373.664 106.896 374.43 106.485 375.136 106.485C376.078 106.485 377.138 107.072 378.316 108.248C378.905 108.718 379.965 109.012 381.497 109.129C383.145 109.247 384.795 109.306 386.444 109.306C387.857 109.306 389.212 109.306 390.507 109.306C391.803 109.188 392.863 109.129 393.688 109.129C399.459 109.129 405.407 109.071 411.532 108.953C417.657 108.835 423.605 108.718 429.377 108.601C430.084 108.601 430.672 108.953 431.144 109.658C431.615 110.246 431.909 110.951 432.027 111.774C432.262 112.597 432.204 113.243 431.85 113.714C430.555 115.359 429.377 116.887 428.317 118.298C427.257 119.708 426.079 121.353 424.783 123.234L393.688 171.895C393.216 172.718 393.099 173.364 393.334 173.835C393.688 174.305 394.512 174.54 395.808 174.54H410.119C411.65 174.54 413.122 174.246 414.536 173.658C415.949 173.071 417.363 172.013 418.776 170.485C420.425 168.722 421.898 166.841 423.193 164.843C424.606 162.727 426.315 160.024 428.317 156.733C429.141 155.44 430.26 154.97 431.674 155.322C433.087 155.675 433.794 156.439 433.794 157.614C433.794 158.32 433.558 159.612 433.087 161.493C432.734 163.256 432.262 165.313 431.674 167.664C431.085 170.014 430.437 172.366 429.73 174.716C429.141 176.95 428.611 178.889 428.14 180.534C427.669 182.298 426.609 183.179 424.96 183.179C422.133 183.179 417.304 183.003 410.472 182.65C403.64 182.298 395.101 182.121 384.854 182.121C382.145 182.121 379.318 182.298 376.373 182.65C373.546 183.003 371.308 183.179 369.659 183.179ZM442.98 182.826C442.038 182.826 441.272 182.65 440.683 182.298C440.094 181.827 439.799 181.24 439.799 180.534C439.799 179.594 440.153 178.889 440.86 178.419C441.566 177.948 442.391 177.596 443.333 177.361C446.16 176.656 448.162 175.892 449.34 175.069C450.636 174.246 451.284 172.835 451.284 170.837V132.579C451.284 128.818 450.695 125.997 449.517 124.116C448.339 122.235 446.337 121.06 443.51 120.59C442.921 120.472 442.45 120.178 442.096 119.708C441.743 119.121 441.566 118.474 441.566 117.769C441.566 116.123 442.214 115.242 443.51 115.124C449.164 113.948 454.052 112.362 458.174 110.364C462.414 108.248 465.653 106.603 467.892 105.427C469.54 104.604 470.6 104.193 471.072 104.193C472.367 104.193 473.015 104.78 473.015 105.956C472.897 107.601 472.662 109.893 472.309 112.832C471.955 115.653 471.602 118.709 471.248 122C471.013 125.174 470.895 128.171 470.895 130.992V170.661C470.895 172.424 471.543 173.776 472.839 174.716C474.134 175.656 476.195 176.538 479.022 177.361C479.964 177.714 480.789 178.125 481.496 178.595C482.203 178.948 482.556 179.594 482.556 180.534C482.556 181.945 481.554 182.65 479.552 182.65C477.314 182.65 475.135 182.592 473.015 182.474C471.013 182.356 469.01 182.239 467.008 182.121C465.123 182.003 463.121 181.945 461.001 181.945C458.999 181.945 457.055 182.003 455.171 182.121C453.286 182.239 451.342 182.356 449.34 182.474C447.455 182.709 445.335 182.826 442.98 182.826ZM460.648 93.967C457.232 93.967 454.346 92.792 451.99 90.441C449.635 88.09 448.457 85.269 448.457 81.978C448.457 78.334 449.635 75.337 451.99 72.986C454.346 70.635 457.232 69.4601 460.648 69.4601C464.181 69.4601 467.126 70.635 469.482 72.986C471.837 75.337 473.015 78.334 473.015 81.978C473.015 85.269 471.837 88.09 469.482 90.441C467.126 92.792 464.181 93.967 460.648 93.967ZM491.796 182.826C490.854 182.826 490.029 182.65 489.322 182.298C488.615 181.945 488.262 181.416 488.262 180.711C488.262 179.771 488.615 179.065 489.322 178.595C490.147 178.125 491.148 177.655 492.326 177.185C494.092 176.597 495.683 175.95 497.096 175.245C498.627 174.54 499.393 172.953 499.393 170.485V84.446C499.393 81.155 498.863 78.393 497.803 76.16C496.861 73.809 494.917 72.34 491.972 71.752C490.795 71.517 490.205 70.635 490.205 69.1074C490.205 67.697 490.736 66.8742 491.796 66.6391C494.74 66.0514 497.744 65.2287 500.806 64.1708C503.986 63.1129 506.931 62.0551 509.64 60.9972C512.467 59.9394 514.823 59.1166 516.707 58.5289C517.532 58.1763 518.121 58 518.474 58C519.064 58 519.476 58.2351 519.711 58.7052C519.947 59.0579 520.064 59.4105 520.064 59.7631C520.064 60.7034 519.888 62.5253 519.534 65.2287C519.181 67.8145 519.004 71.341 519.004 75.807V170.309C519.004 172.777 519.711 174.364 521.124 175.069C522.538 175.774 524.128 176.421 525.895 177.008C527.073 177.479 528.015 177.948 528.722 178.419C529.546 178.889 529.958 179.594 529.958 180.534C529.958 181.24 529.605 181.769 528.898 182.121C528.192 182.474 527.368 182.65 526.425 182.65C524.187 182.65 522.126 182.532 520.241 182.298C518.357 182.18 516.472 182.121 514.587 182.121C512.82 182.003 510.877 181.945 508.757 181.945C506.755 181.945 504.87 182.003 503.103 182.121C501.454 182.239 499.746 182.356 497.979 182.474C496.213 182.709 494.152 182.826 491.796 182.826ZM554.964 184.766C552.137 184.766 549.428 184.002 546.837 182.474C544.363 180.946 542.361 178.948 540.83 176.479C539.298 174.011 538.533 171.484 538.533 168.898C538.533 164.902 539.711 161.669 542.067 159.201C544.422 156.615 547.956 154.323 552.667 152.325L569.099 145.273C571.454 144.333 572.867 143.451 573.339 142.628C573.928 141.805 574.222 140.278 574.222 138.044L574.576 127.642C574.694 124.351 573.987 121.706 572.455 119.708C571.042 117.71 568.863 116.711 565.918 116.711C564.387 116.711 562.797 117.005 561.148 117.592C559.499 118.18 558.203 118.944 557.261 119.884C556.79 120.355 556.436 121.001 556.201 121.824C556.083 122.529 556.024 123.234 556.024 123.939C556.024 124.527 556.024 125.291 556.024 126.231C556.142 127.054 556.201 127.818 556.201 128.523C556.201 129.229 555.318 130.11 553.551 131.168C551.784 132.226 549.782 133.166 547.544 133.989C545.305 134.812 543.421 135.223 541.89 135.223C541.065 135.223 540.418 134.929 539.946 134.342C539.475 133.754 539.24 133.049 539.24 132.226C539.24 130.345 539.828 128.465 541.006 126.584C542.302 124.586 544.305 122.47 547.014 120.237C549.958 117.769 553.197 115.594 556.731 113.714C560.265 111.716 563.68 110.129 566.978 108.953C570.394 107.778 573.339 107.19 575.812 107.19C581.466 107.19 586.001 109.071 589.417 112.832C592.832 116.476 594.482 121.295 594.364 127.289L593.48 165.019C593.362 167.605 593.834 169.78 594.894 171.543C596.072 173.306 597.485 174.187 599.134 174.187C601.608 174.187 603.61 173.482 605.141 172.072C605.612 171.601 606.025 171.366 606.378 171.366C606.967 171.366 607.438 171.601 607.791 172.072C608.263 172.424 608.498 172.895 608.498 173.482C608.498 174.775 607.556 176.362 605.671 178.242C603.551 180.358 601.254 181.945 598.781 183.003C596.425 184.178 594.069 184.766 591.713 184.766C585.471 184.766 580.406 181.534 576.519 175.069H575.989C572.102 178.477 568.51 180.946 565.212 182.474C562.031 184.002 558.616 184.766 554.964 184.766ZM564.682 174.187C566.33 174.187 567.744 173.952 568.922 173.482C570.1 172.895 571.101 172.13 571.925 171.19C572.397 170.603 572.75 169.897 572.985 169.074C573.339 168.251 573.574 167.076 573.692 165.548L574.046 154.264C574.164 153.089 574.046 152.325 573.692 151.972C573.339 151.502 572.927 151.267 572.455 151.267C572.22 151.267 571.867 151.326 571.395 151.444C570.924 151.444 570.394 151.62 569.805 151.972C565.447 153.736 562.326 155.616 560.441 157.614C558.556 159.612 557.614 162.198 557.614 165.372C557.614 168.545 558.38 170.837 559.911 172.248C561.443 173.541 563.033 174.187 564.682 174.187ZM615.354 182.826C614.412 182.826 613.587 182.65 612.88 182.298C612.174 181.827 611.82 181.24 611.82 180.534C611.82 179.594 612.174 178.889 612.88 178.419C613.705 177.948 614.707 177.537 615.884 177.185C617.651 176.714 619.241 176.068 620.654 175.245C622.186 174.422 622.951 172.835 622.951 170.485V130.992C622.951 128.289 622.539 125.997 621.714 124.116C621.008 122.118 619.418 120.824 616.944 120.237C616.473 120.002 616.061 119.708 615.707 119.355C615.354 118.885 615.177 118.18 615.177 117.24C615.177 115.711 615.707 114.83 616.767 114.595C620.89 113.655 624.954 112.421 628.958 110.893C633.081 109.247 636.673 107.543 639.736 105.78C640.207 105.545 640.678 105.251 641.149 104.898C641.62 104.545 642.092 104.369 642.563 104.369C643.152 104.369 643.505 104.604 643.623 105.074C643.859 105.427 643.976 105.838 643.976 106.309C643.976 107.132 643.799 108.659 643.446 110.893C643.211 113.126 643.093 115.065 643.093 116.711C643.093 117.181 643.093 117.71 643.093 118.298C643.211 118.768 643.329 119.061 643.446 119.179C647.451 115.418 651.573 112.479 655.813 110.364C660.172 108.248 665.06 107.19 670.478 107.19C676.485 107.19 681.491 109.482 685.494 114.066C689.621 118.65 691.678 124.703 691.678 132.226V170.661C691.678 173.012 692.385 174.54 693.798 175.245C695.212 175.95 696.802 176.597 698.568 177.185C699.515 177.537 700.399 178.008 701.219 178.595C702.046 179.065 702.455 179.771 702.455 180.711C702.455 181.416 702.046 181.945 701.219 182.298C700.512 182.65 699.805 182.826 699.099 182.826C696.745 182.826 694.682 182.709 692.915 182.474C691.148 182.356 689.381 182.239 687.614 182.121C685.968 182.003 684.081 181.945 681.962 181.945C679.96 181.945 678.075 182.003 676.308 182.121C674.541 182.239 672.716 182.356 670.831 182.474C669.064 182.709 667.004 182.826 664.647 182.826C664.059 182.826 663.411 182.65 662.704 182.298C661.997 181.945 661.644 181.416 661.644 180.711C661.644 179.771 661.997 179.065 662.704 178.595C663.411 178.008 664.235 177.537 665.177 177.185C666.944 176.597 668.476 175.95 669.771 175.245C671.185 174.54 671.891 173.012 671.891 170.661V134.871C671.891 130.169 670.714 126.466 668.358 123.763C666.12 121.06 663.057 119.708 659.17 119.708C655.99 119.708 653.223 120.178 650.866 121.118C648.511 122.059 646.214 123.41 643.976 125.174C643.505 125.526 643.152 126.055 642.916 126.76C642.681 127.348 642.563 127.994 642.563 128.7V170.661C642.563 173.012 643.211 174.598 644.506 175.421C645.919 176.127 647.51 176.714 649.276 177.185C651.75 178.008 652.987 179.124 652.987 180.534C652.987 181.24 652.693 181.827 652.103 182.298C651.515 182.65 650.749 182.826 649.806 182.826C647.451 182.826 645.389 182.709 643.623 182.474C641.856 182.356 640.148 182.239 638.499 182.121C636.85 182.003 634.965 181.945 632.845 181.945C630.843 181.945 628.958 182.003 627.191 182.121C625.425 182.239 623.599 182.356 621.714 182.474C619.83 182.709 617.71 182.826 615.354 182.826ZM740.618 184.766C733.551 184.766 728.194 182.885 724.54 179.124C720.887 175.363 719.063 169.897 719.063 162.727V122C719.063 121.06 718.653 120.355 717.827 119.884C717.12 119.414 715.65 119.121 713.41 119.003H711.466C710.759 119.003 710.173 118.474 709.699 117.416C709.226 116.24 708.993 115.124 708.993 114.066C708.993 113.831 709.049 113.537 709.169 113.185C709.402 112.714 709.699 112.421 710.053 112.303C712.759 111.127 715.53 109.541 718.357 107.543C721.184 105.427 723.834 103.311 726.307 101.196C728.781 98.962 730.844 97.082 732.491 95.554C733.318 94.966 733.961 94.437 734.434 93.967C735.021 93.497 735.671 93.262 736.378 93.262C737.318 93.262 738.025 93.497 738.498 93.967C739.085 94.32 739.261 95.083 739.028 96.259L737.968 105.956C737.848 107.366 738.145 108.306 738.851 108.777C739.678 109.247 740.795 109.482 742.208 109.482H763.057C763.41 109.482 763.763 109.893 764.117 110.716C764.47 111.539 764.647 112.362 764.647 113.185C764.647 114.713 764.413 116.123 763.94 117.416C763.587 118.709 763.113 119.355 762.526 119.355H745.742C743.035 119.355 741.148 119.649 740.088 120.237C739.148 120.824 738.675 122.059 738.675 123.939V157.791C738.675 162.962 739.678 166.9 741.678 169.603C743.678 172.189 746.505 173.482 750.159 173.482C753.459 173.482 755.933 173.188 757.579 172.601C759.346 172.013 760.936 171.308 762.35 170.485C762.703 170.25 763 170.132 763.233 170.132C763.82 170.132 764.237 170.485 764.47 171.19C764.823 171.895 765 172.659 765 173.482C765 174.07 763.82 175.304 761.466 177.185C759.226 179.065 756.223 180.769 752.456 182.298C748.802 183.943 744.859 184.766 740.618 184.766Z" fill="white"/>
<path d="M110.396 112.212C110.688 173.828 61.609 223.834 1.13604 223.537L0.259644 -0.00579834C60.732 0.291902 110.103 50.5964 110.396 112.212Z" fill="#FF5050"/>
<path d="M66.2359 201.067L62.7469 203.733L18.3304 130.279L33.889 120.565L76.8729 192.034L70.146 198.079L66.2359 201.067Z" fill="white" stroke="white"/>
<path d="M0.775635 39.4684L3.95903 39.4456C53.43 39.0922 73.452 103.042 32.9439 132.026" stroke="white" stroke-width="20"/>
</svg>
